<?xml version="1.0" encoding="UTF-8" standalone="no"?>
<!-- Created with Inkscape (http://www.inkscape.org/) -->

<svg
   xmlns:dc="http://purl.org/dc/elements/1.1/"
   xmlns:cc="http://creativecommons.org/ns#"
   xmlns:rdf="http://www.w3.org/1999/02/22-rdf-syntax-ns#"
   xmlns:svg="http://www.w3.org/2000/svg"
   xmlns="http://www.w3.org/2000/svg"
   xmlns:xlink="http://www.w3.org/1999/xlink"
   xmlns:sodipodi="http://sodipodi.sourceforge.net/DTD/sodipodi-0.dtd"
   xmlns:inkscape="http://www.inkscape.org/namespaces/inkscape"
   version="1.1"
   id="svg4692"
   xml:space="preserve"
   width="688.70667"
   height="604.44"
   viewBox="0 0 688.70667 604.44"
   sodipodi:docname="27001.svg"
   inkscape:version="0.92.4 (5da689c313, 2019-01-14)"><metadata
     id="metadata4698"><rdf:RDF><cc:Work
         rdf:about=""><dc:format>image/svg+xml</dc:format><dc:type
           rdf:resource="http://purl.org/dc/dcmitype/StillImage" /><dc:title></dc:title></cc:Work></rdf:RDF></metadata><defs
     id="defs4696"><path
       style="fill:none;fill-opacity:1;stroke:#000000;stroke-width:15.97309589;stroke-opacity:1"
       d="m 3266.4677,3532.3249 a 684.20525,688.4433 0 0 1 -684.2052,688.4432 684.20525,688.4433 0 0 1 -684.2053,-688.4432 684.20525,688.4433 0 0 1 684.2053,-688.4431 684.20525,688.4433 0 0 1 684.2052,688.4431 z"
       id="path6930-3"
       inkscape:connector-curvature="0" /></defs><sodipodi:namedview
     pagecolor="#ffffff"
     bordercolor="#666666"
     borderopacity="1"
     objecttolerance="10"
     gridtolerance="10"
     guidetolerance="10"
     inkscape:pageopacity="0"
     inkscape:pageshadow="2"
     inkscape:window-width="1920"
     inkscape:window-height="1051"
     id="namedview4694"
     showgrid="false"
     inkscape:zoom="2.2086851"
     inkscape:cx="334.50799"
     inkscape:cy="465.4747"
     inkscape:window-x="-9"
     inkscape:window-y="-9"
     inkscape:window-maximized="1"
     inkscape:current-layer="g4702" /><g
     id="g4700"
     inkscape:groupmode="layer"
     inkscape:label="ink_ext_XXXXXX"
     transform="matrix(1.3333333,0,0,-1.3333333,0,604.44)"><g
       id="g4702"
       transform="scale(0.1)"><path
         d="m 2380.75,4420.34 56.08,103.16 92.93,-82.69 72.04,92.51 77.78,-97.01 86.77,79.82 61,-108.48 98.65,63.86 42.15,-116.67 108.09,47.09 22.09,-122.4 114.21,28.65 1.64,-124.44 117.49,9.82 -18.85,-122.8 117.48,-10.23 -38.48,-117.89 113.81,-29.07 -57.3,-110.11 107.63,-47.48 -74.9,-99.06 98.24,-64.68 -90.47,-85.14 86.8,-79.82 -103.16,-69.18 72.05,-93.34 -113.4,-51.16 56.09,-103.57 -120.35,-32.34 38.07,-111.34 -123.62,-11.86 18.83,-116.25 -124.04,8.59 v -117.89 l -121.15,29.06 -19.67,-116.25 -114.61,48.71 -38.48,-111.34 -105.19,66.3 -56.08,-103.14 -92.93,82.68 -72.04,-92.5 -77.78,97.01 -86.77,-79.83 -61,108.48 -98.65,-63.85 -42.16,116.66 -108.07,-47.07 -22.11,122.38 -114.2,-28.65 -1.64,124.44 -117.48,-9.83 18.83,122.81 -117.48,10.23 38.48,117.9 -113.8,29.06 57.31,110.12 -107.66,47.48 74.91,99.05 -98.24,64.68 90.46,85.15 -86.78,79.82 103.15,69.18 -72.04,93.33 113.39,51.16 -56.08,103.57 120.35,32.33 -38.07,111.35 123.62,11.87 -18.83,116.25 124.03,-8.59 v 117.89 l 121.16,-29.07 19.65,116.26 114.62,-48.72 38.48,111.35 105.2,-66.32"
         style="fill:#fccb2c;fill-opacity:1;fill-rule:evenodd;stroke:none"
         id="path4846"
         inkscape:connector-curvature="0"
         inkscape:export-xdpi="349.60001"
         inkscape:export-ydpi="349.60001" /><path
         d="m 2578.88,4409.7 c 483.84,0 876.81,-392.97 876.81,-876.81 0,-483.84 -392.97,-876.82 -876.81,-876.82 -483.85,0 -876.82,392.98 -876.82,876.82 0,483.84 392.97,876.81 876.82,876.81 z"
         style="fill:none;stroke:#fae866;stroke-width:51.06299973;stroke-linecap:butt;stroke-linejoin:miter;stroke-miterlimit:10;stroke-dasharray:none;stroke-opacity:1"
         id="path4848"
         inkscape:connector-curvature="0"
         inkscape:export-xdpi="349.60001"
         inkscape:export-ydpi="349.60001" /><path
         d="m 2578.88,4169.82 c 351.61,0 636.93,-285.31 636.93,-636.93 0,-351.63 -285.32,-636.94 -636.93,-636.94 -351.63,0 -636.95,285.31 -636.95,636.94 0,351.62 285.32,636.93 636.95,636.93 z"
         style="fill:none;stroke:#fae866;stroke-width:51.06299973;stroke-linecap:butt;stroke-linejoin:miter;stroke-miterlimit:10;stroke-dasharray:none;stroke-opacity:1"
         id="path4866"
         inkscape:connector-curvature="0"
         inkscape:export-xdpi="349.60001"
         inkscape:export-ydpi="349.60001" /><text
         xml:space="preserve"
         style="font-style:normal;font-weight:normal;font-size:215.52130127px;line-height:1.25;font-family:sans-serif;letter-spacing:0px;word-spacing:0px;fill:#000000;fill-opacity:1;stroke:none;stroke-width:5.38803244"
         x="1952.6835"
         y="-3484.2839"
         id="text5413"
         transform="scale(1,-1)"
         inkscape:export-xdpi="349.60001"
         inkscape:export-ydpi="349.60001"><tspan
           sodipodi:role="line"
           id="tspan5411"
           x="1952.6835"
           y="-3484.2839"
           style="font-weight:bold;stroke-width:5.38803244">ISO 27001</tspan></text>
<g
         aria-label="Certified"
         transform="matrix(0.79510272,-0.72565471,-0.72409011,-0.70730063,3255.9499,7753.7)"
         style="font-style:normal;font-weight:normal;font-size:300px;line-height:1.25;font-family:sans-serif;letter-spacing:0px;word-spacing:0px;fill:#000000;fill-opacity:1;stroke:none;stroke-width:7.5"
         id="text5417"
         inkscape:export-xdpi="349.60001"
         inkscape:export-ydpi="349.60001"><text
           xml:space="preserve"
           style="font-style:normal;font-weight:normal;font-size:300px;line-height:1.25;font-family:sans-serif;letter-spacing:0px;word-spacing:0px;fill:#000000;fill-opacity:1;stroke:none;stroke-width:56.25"
           id="text6909"
           transform="translate(-234.12097,41.837395)"><textPath
             xlink:href="#path6930"
             id="textPath6933"
             style="font-style:normal;font-variant:normal;font-weight:normal;font-stretch:normal;font-size:191.75746155px;font-family:'Copperplate Gothic Bold';-inkscape-font-specification:'Copperplate Gothic Bold, '">certified</textPath></text>
</g><path
         style="fill:none;fill-opacity:1;stroke:#000000;stroke-width:15.97309589;stroke-opacity:1"
         d="m 3266.4677,3532.3249 a 684.20525,688.4433 0 0 1 -684.2052,688.4432 684.20525,688.4433 0 0 1 -684.2053,-688.4432 684.20525,688.4433 0 0 1 684.2053,-688.4431 684.20525,688.4433 0 0 1 684.2052,688.4431 z"
         id="path6930"
         inkscape:connector-curvature="0"
         inkscape:export-xdpi="349.60001"
         inkscape:export-ydpi="349.60001" /><g
         aria-label="Certified"
         transform="matrix(-0.78883389,0.73246444,0.73014497,0.70104854,1858.198,-675.52218)"
         style="font-style:normal;font-weight:normal;font-size:300px;line-height:1.25;font-family:sans-serif;letter-spacing:0px;word-spacing:0px;fill:#000000;fill-opacity:1;stroke:none;stroke-width:7.5"
         id="text5417-9"
         inkscape:export-xdpi="349.60001"
         inkscape:export-ydpi="349.60001"><text
           xml:space="preserve"
           style="font-style:normal;font-weight:normal;font-size:300px;line-height:1.25;font-family:sans-serif;letter-spacing:0px;word-spacing:0px;fill:#000000;fill-opacity:1;stroke:none;stroke-width:56.25"
           id="text6909-4"
           transform="translate(-234.12097,41.837395)"><textPath
             xlink:href="#path6930-3"
             id="textPath6933-1"
             style="font-style:normal;font-variant:normal;font-weight:normal;font-stretch:normal;font-size:191.75746155px;font-family:'Copperplate Gothic Bold';-inkscape-font-specification:'Copperplate Gothic Bold, '">certified</textPath></text>
</g></g></g></svg>